<?xml version="1.0" standalone="no"?>
<!DOCTYPE svg PUBLIC "-//W3C//DTD SVG 20010904//EN"
 "http://www.w3.org/TR/2001/REC-SVG-20010904/DTD/svg10.dtd">
<svg version="1.0" xmlns="http://www.w3.org/2000/svg"
 width="160.000000pt" height="160.000000pt" viewBox="0 0 160.000000 160.000000"
 preserveAspectRatio="xMidYMid meet">

<g transform="translate(0.000000,160.000000) scale(0.100000,-0.100000)"
fill="#000000" stroke="none">
<path d="M676 1541 c-7 -11 18 -33 27 -24 4 3 7 12 7 20 0 15 -26 18 -34 4z"/>
<path d="M1000 1464 c-32 -38 -51 -52 -64 -49 -10 2 -32 -3 -47 -11 -42 -21
-48 -18 -69 31 -11 25 -26 45 -33 45 -8 0 -26 -18 -41 -40 -26 -39 -46 -45
-46 -14 0 14 -2 13 -16 0 -22 -23 -56 -20 -98 9 -20 14 -41 25 -46 25 -4 0
-11 -17 -15 -38 -9 -57 -20 -70 -45 -54 -29 18 -37 15 -45 -15 -10 -43 -34
-64 -56 -52 -29 15 -39 2 -39 -52 0 -60 -13 -68 -73 -45 -24 9 -46 16 -50 16
-17 0 -4 -23 35 -66 41 -44 42 -47 23 -60 -10 -8 -30 -14 -43 -14 -25 0 -25 1
-6 -61 4 -11 -10 -26 -45 -48 -28 -17 -51 -34 -51 -38 0 -5 9 -21 20 -38 30
-45 26 -57 -18 -54 -60 3 -66 1 -52 -16 7 -8 27 -15 45 -15 44 0 65 -9 65 -27
0 -9 8 -21 17 -28 15 -11 15 -15 -2 -51 -10 -22 -25 -44 -34 -51 -14 -11 -13
-12 7 -13 33 0 27 -12 -28 -54 -27 -21 -50 -44 -50 -51 0 -8 27 -30 60 -50 45
-28 60 -42 60 -59 0 -32 16 -43 75 -51 37 -5 55 -13 69 -32 18 -24 18 -27 1
-89 -10 -36 -15 -68 -11 -71 4 -4 29 15 57 43 32 30 53 44 56 37 3 -8 23 -13
52 -13 57 0 81 -21 81 -69 0 -39 15 -33 23 9 9 42 27 37 27 -7 l1 -38 14 33
c8 17 17 32 20 32 4 0 32 -18 62 -40 31 -22 60 -40 64 -40 5 0 23 28 40 61 34
68 42 67 62 -1 21 -73 37 -62 37 24 0 66 3 77 20 86 17 9 31 5 81 -29 34 -23
65 -39 69 -36 4 2 10 27 14 55 l7 51 54 -6 c51 -7 55 -6 55 13 0 34 18 35 75
2 33 -19 55 -27 55 -19 0 7 -16 40 -35 75 -19 34 -35 67 -35 72 0 6 16 16 35
22 28 9 35 17 35 38 0 38 10 50 55 65 60 21 67 42 27 77 -29 24 -32 31 -22 49
12 24 6 41 -16 41 -17 0 -17 8 1 40 25 43 19 66 -22 87 -49 24 -50 35 -8 57
19 10 42 28 52 39 18 20 17 20 -23 15 -23 -3 -48 -2 -55 3 -8 5 -10 9 -5 9 6
0 2 6 -7 13 -15 10 -16 19 -8 64 6 29 17 68 26 89 27 65 23 74 -40 74 -30 0
-55 4 -55 9 0 23 14 42 45 61 18 11 43 37 55 58 20 33 20 35 3 20 -11 -10 -24
-18 -29 -18 -6 0 -23 -14 -40 -31 -34 -36 -100 -73 -119 -65 -7 2 -11 14 -8
28 2 13 -2 31 -9 41 -13 17 -16 17 -77 -2 -36 -11 -68 -18 -73 -15 -13 8 -9
47 11 107 11 31 17 58 13 61 -4 2 -27 -20 -52 -50z m-368 -263 c26 -23 32 -36
31 -66 -2 -58 -47 -114 -120 -150 -34 -16 -62 -32 -62 -35 -1 -3 34 -29 76
-58 88 -59 89 -69 3 -17 -32 19 -62 35 -66 35 -5 0 16 -24 47 -53 63 -59 52
-53 -39 22 -61 49 -82 56 -82 25 0 -8 -4 -14 -10 -14 -5 0 -7 7 -4 15 8 20 -5
19 -27 -1 -17 -16 -18 -15 -6 16 9 26 9 34 0 37 -7 3 -13 14 -13 25 0 15 5 18
20 13 16 -5 25 6 57 72 32 66 42 78 66 81 32 4 34 -6 7 -59 -52 -100 -45 -113
24 -49 117 108 58 172 -88 96 -51 -26 -66 -31 -70 -20 -21 54 69 111 176 113
39 1 54 -4 80 -28z m436 -73 c7 -7 12 -17 12 -24 0 -9 -134 -209 -161 -238 -4
-5 -19 -6 -33 -2 -26 6 -26 7 -26 114 0 71 -4 112 -12 120 -19 19 23 15 51 -4
22 -16 23 -21 17 -93 l-7 -76 26 40 c14 22 42 70 61 108 34 67 49 78 72 55z
m151 -32 c21 -22 21 -26 8 -58 -20 -46 -62 -78 -104 -78 -30 0 -34 -3 -31 -22
5 -34 66 -30 114 7 27 21 34 23 26 9 -17 -32 -102 -98 -102 -80 0 3 12 12 28
20 27 15 27 15 -13 9 -30 -4 -44 -1 -54 11 -7 9 -20 16 -27 16 -22 0 -16 -27
8 -44 12 -9 17 -16 10 -16 -19 0 -52 38 -52 60 0 54 53 133 115 171 39 24 47
24 74 -5z m-403 -18 l31 -32 -34 -71 c-23 -48 -32 -79 -29 -97 6 -31 3 -33
-25 -18 -13 8 -19 21 -19 48 l0 37 -39 -43 c-44 -47 -41 -46 -76 -30 -55 25
-11 142 78 208 52 38 73 38 113 -2z m273 -392 c9 -10 8 -16 -4 -26 -22 -18
-19 -30 8 -30 23 0 47 -17 47 -32 0 -4 -22 -8 -49 -8 -43 0 -52 -4 -71 -29
-35 -51 -53 -101 -40 -116 8 -10 16 -11 23 -4 7 5 24 18 40 30 19 14 27 29 27
50 0 26 6 33 44 49 59 27 86 29 100 7 9 -14 8 -20 -4 -27 -8 -5 -19 -5 -25 0
-6 5 -25 2 -45 -7 l-35 -16 35 -11 c68 -22 77 -41 35 -80 -44 -41 -144 -41
-128 0 7 18 -2 18 -30 0 -12 -8 -33 -13 -47 -13 -39 3 -38 45 5 148 4 11 0 18
-14 22 -36 9 -26 37 13 37 28 0 38 6 56 35 23 37 40 44 59 21z m-464 -60 c8
-25 6 -31 -18 -51 l-27 -24 30 -29 c26 -27 30 -28 35 -12 3 11 22 33 41 50 41
35 96 39 102 7 5 -24 -63 -91 -84 -83 -21 8 -34 -1 -27 -19 6 -17 36 -19 64
-4 11 5 33 29 50 52 53 73 102 94 138 58 19 -19 19 -20 -6 -71 -13 -28 -22
-58 -19 -67 4 -10 1 -13 -12 -11 -9 2 -19 14 -20 27 l-4 23 -28 -27 c-24 -23
-31 -25 -49 -16 -12 7 -21 16 -21 21 0 5 -16 0 -35 -11 -40 -24 -74 -22 -89 6
-6 11 -12 22 -13 24 -2 2 -12 -8 -23 -22 -24 -30 -118 -77 -152 -76 -16 0 -11
4 17 13 52 17 98 41 115 61 11 14 10 15 -11 6 -13 -6 -46 -21 -74 -35 -27 -14
-58 -26 -68 -26 -10 0 -15 -4 -12 -10 3 -5 -1 -10 -10 -10 -12 0 -15 5 -11 16
3 9 9 28 12 42 9 39 -12 16 -25 -28 l-11 -35 6 40 c3 22 18 72 34 110 29 74
30 86 4 65 -13 -12 -17 -11 -24 1 -21 33 75 80 160 76 50 -2 55 -4 65 -31z"/>
<path d="M927 923 c-13 -13 -19 -14 -29 -5 -20 20 -30 14 -26 -15 4 -39 31
-40 58 -3 25 35 23 49 -3 23z"/>
<path d="M1145 1038 c-19 -23 -23 -34 -14 -37 13 -4 59 42 59 60 0 18 -19 9
-45 -23z"/>
<path d="M738 1037 c-45 -35 -88 -90 -88 -114 0 -27 24 -7 88 70 69 83 69 96
0 44z"/>
<path d="M610 905 c0 -8 9 -19 19 -24 14 -8 25 -6 45 10 15 12 25 24 22 27 -3
3 -15 -3 -27 -14 -20 -18 -22 -18 -34 -1 -15 21 -25 22 -25 2z"/>
<path d="M750 901 c0 -10 6 -23 13 -30 11 -8 13 -5 9 19 -5 33 -22 41 -22 11z"/>
<path d="M1066 476 c-9 -15 -15 -26 -13 -26 10 0 80 39 70 40 -6 0 -18 2 -26
6 -8 3 -21 -5 -31 -20z"/>
<path d="M1114 466 c-45 -20 -49 -33 -12 -40 21 -4 39 -1 55 9 21 14 22 18 9
30 -17 18 -13 18 -52 1z m32 -21 c-11 -8 -24 -15 -30 -15 -5 0 -1 7 10 15 10
8 24 14 29 14 6 0 1 -6 -9 -14z"/>
<path d="M950 456 c0 -8 4 -17 9 -20 5 -4 7 3 4 14 -6 23 -13 26 -13 6z"/>
<path d="M1068 413 c7 -3 16 -2 19 1 4 3 -2 6 -13 5 -11 0 -14 -3 -6 -6z"/>
<path d="M535 623 c-14 -3 -33 -33 -65 -104 -57 -127 -55 -119 -35 -119 27 0
135 61 146 83 14 25 5 32 -43 32 -23 0 -43 5 -45 11 -2 6 19 26 47 45 62 42
60 66 -5 52z"/>
<path d="M715 540 c-14 -16 -15 -20 -4 -20 16 0 39 19 39 32 0 14 -16 9 -35
-12z"/>
<path d="M850 523 c-38 -39 -50 -63 -31 -63 14 0 85 89 78 97 -4 3 -25 -12
-47 -34z"/>
<path d="M650 449 c0 -9 48 -24 55 -17 2 2 -9 9 -25 15 -17 6 -30 7 -30 2z"/>
<path d="M780 452 c0 -16 32 -24 44 -11 8 9 8 10 -2 5 -7 -4 -19 -2 -27 4 -9
7 -15 8 -15 2z"/>
<path d="M1210 1424 c0 -17 22 -14 28 4 2 7 -3 12 -12 12 -9 0 -16 -7 -16 -16z"/>
<path d="M298 1233 c7 -3 16 -2 19 1 4 3 -2 6 -13 5 -11 0 -14 -3 -6 -6z"/>
<path d="M92 999 c2 -6 8 -10 13 -10 5 0 11 4 13 10 2 6 -4 11 -13 11 -9 0
-15 -5 -13 -11z"/>
<path d="M1150 270 c0 -5 5 -10 10 -10 6 0 10 5 10 10 0 6 -4 10 -10 10 -5 0
-10 -4 -10 -10z"/>
</g>
</svg>
